<?xml version="1.0" encoding="UTF-8" standalone="no"?>
<!DOCTYPE svg PUBLIC "-//W3C//DTD SVG 1.1//EN"
 "http://www.w3.org/Graphics/SVG/1.1/DTD/svg11.dtd">
<!-- Generated by graphviz version 14.1.3 (20260303.0454)
 -->
<!-- Title: Simple Example Pages: 1 -->
<svg width="452pt" height="746pt"
 viewBox="0.00 0.00 452.00 746.00" xmlns="http://www.w3.org/2000/svg" xmlns:xlink="http://www.w3.org/1999/xlink">
<g id="graph0" class="graph" transform="scale(1 1) rotate(0) translate(144 602.4)">
<title>Simple Example</title>
<polygon fill="white" stroke="none" points="-144,144 -144,-602.4 307.8,-602.4 307.8,144 -144,144"/>
<text xml:space="preserve" text-anchor="middle" x="81.9" y="-8.5" font-family="Sans-Serif" font-size="15.00" fill="#2d3436">Simple Example</text>
<!-- mnjbxfqd_xq56fiq72 -->
<g id="node1" class="node">
<title>mnjbxfqd_xq56fiq72</title>
<path fill="none" stroke="black" d="M151.8,-458.4C151.8,-458.4 75,-458.4 75,-458.4 69,-458.4 63,-452.4 63,-446.4 63,-446.4 63,-369.6 63,-369.6 63,-363.6 69,-357.6 75,-357.6 75,-357.6 151.8,-357.6 151.8,-357.6 157.8,-357.6 163.8,-363.6 163.8,-369.6 163.8,-369.6 163.8,-446.4 163.8,-446.4 163.8,-452.4 157.8,-458.4 151.8,-458.4"/>
<text xml:space="preserve" text-anchor="middle" x="113.4" y="-361.5" font-family="Sans-Serif" font-size="13.00" fill="#2d3436">Web Server</text>
</g>
<!-- mnjbxfqd_l9hf5otcl -->
<g id="node2" class="node">
<title>mnjbxfqd_l9hf5otcl</title>
<path fill="none" stroke="black" d="M88.8,-292.6C88.8,-292.6 12,-292.6 12,-292.6 6,-292.6 0,-286.6 0,-280.6 0,-280.6 0,-203.8 0,-203.8 0,-197.8 6,-191.8 12,-191.8 12,-191.8 88.8,-191.8 88.8,-191.8 94.8,-191.8 100.8,-197.8 100.8,-203.8 100.8,-203.8 100.8,-280.6 100.8,-280.6 100.8,-286.6 94.8,-292.6 88.8,-292.6"/>
<text xml:space="preserve" text-anchor="middle" x="50.4" y="-195.7" font-family="Sans-Serif" font-size="13.00" fill="#2d3436">App Server</text>
</g>
<!-- mnjbxfqd_xq56fiq72&#45;&gt;mnjbxfqd_l9hf5otcl -->
<g id="edge1" class="edge">
<title>mnjbxfqd_xq56fiq72&#45;&gt;mnjbxfqd_l9hf5otcl</title>
<path fill="none" stroke="#495057" d="M94.33,-357.41C87.57,-339.85 79.91,-319.93 72.9,-301.7"/>
<polygon fill="#495057" stroke="#495057" points="75.55,-300.78 70.06,-294.32 70.32,-302.79 75.55,-300.78"/>
</g>
<!-- mnjbxfqd_9u84890mj -->
<g id="node3" class="node">
<title>mnjbxfqd_9u84890mj</title>
<path fill="none" stroke="black" d="M151.8,-126.8C151.8,-126.8 75,-126.8 75,-126.8 69,-126.8 63,-120.8 63,-114.8 63,-114.8 63,-38 63,-38 63,-32 69,-26 75,-26 75,-26 151.8,-26 151.8,-26 157.8,-26 163.8,-32 163.8,-38 163.8,-38 163.8,-114.8 163.8,-114.8 163.8,-120.8 157.8,-126.8 151.8,-126.8"/>
<text xml:space="preserve" text-anchor="middle" x="113.4" y="-29.9" font-family="Sans-Serif" font-size="13.00" fill="#2d3436">Database</text>
</g>
<!-- mnjbxfqd_xq56fiq72&#45;&gt;mnjbxfqd_9u84890mj -->
<g id="edge3" class="edge">
<title>mnjbxfqd_xq56fiq72&#45;&gt;mnjbxfqd_9u84890mj</title>
<path fill="none" stroke="blue" stroke-dasharray="5,2" d="M119.76,-357.25C122.03,-337.21 124.29,-313.84 125.4,-292.6 127.74,-247.86 127.74,-236.54 125.4,-191.8 124.45,-173.71 122.67,-154.08 120.77,-136.28"/>
<polygon fill="blue" stroke="blue" points="123.58,-136.3 119.93,-128.65 118.02,-136.91 123.58,-136.3"/>
</g>
<!-- mnjbxfqd_l9hf5otcl&#45;&gt;mnjbxfqd_9u84890mj -->
<g id="edge2" class="edge">
<title>mnjbxfqd_l9hf5otcl&#45;&gt;mnjbxfqd_9u84890mj</title>
<path fill="none" stroke="#495057" d="M69.47,-191.61C76.23,-174.05 83.89,-154.13 90.9,-135.9"/>
<polygon fill="#495057" stroke="#495057" points="93.48,-136.99 93.74,-128.52 88.25,-134.98 93.48,-136.99"/>
</g>
</g>
</svg>
